<svg xmlns="http://www.w3.org/2000/svg" width="113" height="110" fill="none" viewBox="0 0 113 110"><ellipse cx="104.669" cy="4.993" fill="#1B1F31" rx="3.124" ry="3.364" transform="rotate(26.6052 104.669 4.99321)"/><mask id="mask0_2153_132" style="mask-type:luminance" width="7" height="8" x="101" y="1" maskUnits="userSpaceOnUse"><ellipse cx="104.669" cy="4.993" fill="#fff" rx="3.124" ry="3.364" transform="rotate(26.6052 104.669 4.99321)"/></mask><g mask="url(#mask0_2153_132)"><ellipse cx="104.669" cy="4.993" fill="#FD6B22" rx="3.124" ry="3.364" transform="rotate(26.6052 104.669 4.99321)"/><ellipse cx="103.113" cy="7.882" fill="#F15608" rx="3.124" ry="3.364" transform="rotate(26.6052 103.113 7.88218)"/></g><ellipse cx="100.228" cy="11.169" fill="#fff" rx="4.659" ry="5.018" transform="rotate(26.6052 100.228 11.1694)"/><mask id="mask1_2153_132" style="mask-type:luminance" width="10" height="11" x="95" y="6" maskUnits="userSpaceOnUse"><ellipse cx="100.228" cy="11.169" fill="#fff" rx="4.659" ry="5.018" transform="rotate(26.6052 100.228 11.1694)"/></mask><g mask="url(#mask1_2153_132)"><ellipse cx="100.228" cy="11.169" fill="#F9FAFF" rx="4.659" ry="5.018" transform="rotate(26.6052 100.228 11.1694)"/><ellipse cx="96.233" cy="16.963" fill="#E9E9EB" rx="4.659" ry="5.018" transform="rotate(26.6052 96.2333 16.9635)"/></g><ellipse cx="94.197" cy="19.844" fill="#1B1F31" rx="6.261" ry="6.744" transform="rotate(26.6052 94.1967 19.8439)"/><mask id="mask2_2153_132" style="mask-type:luminance" width="14" height="14" x="87" y="13" maskUnits="userSpaceOnUse"><ellipse cx="94.197" cy="19.844" fill="#fff" rx="6.261" ry="6.744" transform="rotate(26.6052 94.1967 19.8439)"/></mask><g mask="url(#mask2_2153_132)"><ellipse cx="94.197" cy="19.844" fill="#FD6B22" rx="6.261" ry="6.744" transform="rotate(26.6052 94.1967 19.8439)"/><ellipse cx="90.752" cy="25.73" fill="#F15608" rx="6.261" ry="6.744" transform="rotate(26.6052 90.7517 25.73)"/></g><ellipse cx="86.566" cy="31.669" fill="#fff" rx="9.338" ry="10.058" transform="rotate(26.6052 86.5659 31.6687)"/><mask id="mask3_2153_132" style="mask-type:luminance" width="20" height="21" x="77" y="21" maskUnits="userSpaceOnUse"><ellipse cx="86.566" cy="31.669" fill="#fff" rx="9.338" ry="10.058" transform="rotate(26.6052 86.5659 31.6687)"/></mask><g mask="url(#mask3_2153_132)"><ellipse cx="86.566" cy="31.669" fill="#F9FAFF" rx="9.338" ry="10.058" transform="rotate(26.6052 86.5659 31.6687)"/><ellipse cx="83.543" cy="36.921" fill="#E9E9EB" rx="9.338" ry="8.498" transform="rotate(75.6839 83.5425 36.9206)"/></g><ellipse cx="3.121" cy="3.362" fill="#1B1F31" rx="3.121" ry="3.362" transform="matrix(-0.885098 0.467174 0.467174 0.885098 9.27558 -1.11933)"/><mask id="mask4_2153_132" style="mask-type:luminance" width="8" height="7" x="4" y="0" maskUnits="userSpaceOnUse"><ellipse cx="3.121" cy="3.362" fill="#fff" rx="3.121" ry="3.362" transform="matrix(-0.885098 0.467174 0.467174 0.885098 9.27558 -1.11933)"/></mask><g mask="url(#mask4_2153_132)"><ellipse cx="3.121" cy="3.362" fill="#FD6B22" rx="3.121" ry="3.362" transform="matrix(-0.885098 0.467174 0.467174 0.885098 9.27558 -1.11933)"/><ellipse cx="3.121" cy="3.362" fill="#F15608" rx="3.121" ry="3.362" transform="matrix(-0.885098 0.467174 0.467174 0.885098 10.8924 1.7358)"/></g><ellipse cx="4.655" cy="5.014" fill="#fff" rx="4.655" ry="5.014" transform="matrix(-0.885098 0.467174 0.467174 0.885098 14.4331 2.7822)"/><mask id="mask5_2153_132" style="mask-type:luminance" width="11" height="11" x="7" y="4" maskUnits="userSpaceOnUse"><ellipse cx="4.655" cy="5.014" fill="#fff" rx="4.655" ry="5.014" transform="matrix(-0.885098 0.467174 0.467174 0.885098 14.4331 2.7822)"/></mask><g mask="url(#mask5_2153_132)"><ellipse cx="4.655" cy="5.014" fill="#F9FAFF" rx="4.655" ry="5.014" transform="matrix(-0.885098 0.467174 0.467174 0.885098 14.4331 2.7822)"/><ellipse cx="4.655" cy="5.014" fill="#E9E9EB" rx="4.655" ry="5.014" transform="matrix(-0.885098 0.467174 0.467174 0.885098 18.5497 8.48978)"/></g><ellipse cx="6.256" cy="6.738" fill="#1B1F31" rx="6.256" ry="6.738" transform="matrix(-0.885098 0.467174 0.467174 0.885098 21.2589 9.05152)"/><mask id="mask6_2153_132" style="mask-type:luminance" width="14" height="14" x="12" y="11" maskUnits="userSpaceOnUse"><ellipse cx="6.256" cy="6.738" fill="#fff" rx="6.256" ry="6.738" transform="matrix(-0.885098 0.467174 0.467174 0.885098 21.2589 9.05152)"/></mask><g mask="url(#mask6_2153_132)"><ellipse cx="6.256" cy="6.738" fill="#FD6B22" rx="6.256" ry="6.738" transform="matrix(-0.885098 0.467174 0.467174 0.885098 21.2589 9.05152)"/><ellipse cx="6.256" cy="6.738" fill="#F15608" rx="6.256" ry="6.738" transform="matrix(-0.885098 0.467174 0.467174 0.885098 24.8283 14.8628)"/></g><ellipse cx="9.33" cy="10.05" fill="#fff" rx="9.33" ry="10.05" transform="matrix(-0.885098 0.467174 0.467174 0.885098 30.3145 16.344)"/><mask id="mask7_2153_132" style="mask-type:luminance" width="20" height="21" x="17" y="19" maskUnits="userSpaceOnUse"><ellipse cx="9.33" cy="10.05" fill="#fff" rx="9.33" ry="10.05" transform="matrix(-0.885098 0.467174 0.467174 0.885098 30.3145 16.344)"/></mask><g mask="url(#mask7_2153_132)"><ellipse cx="9.33" cy="10.05" fill="#F9FAFF" rx="9.33" ry="10.05" transform="matrix(-0.885098 0.467174 0.467174 0.885098 30.3145 16.344)"/><ellipse cx="9.33" cy="8.491" fill="#E9E9EB" rx="9.33" ry="8.491" transform="matrix(-0.885098 0.467174 0.467174 0.885098 36.2434 25.3398)"/></g><ellipse cx="103.001" cy="70.843" fill="#fff" rx="9.866" ry="14.04" transform="rotate(9.29696 103.001 70.8432)"/><mask id="mask8_2153_132" style="mask-type:luminance" width="20" height="29" x="93" y="56" maskUnits="userSpaceOnUse"><ellipse cx="103.001" cy="70.843" fill="#fff" rx="9.866" ry="14.04" transform="rotate(9.29696 103.001 70.8432)"/></mask><g mask="url(#mask8_2153_132)"><ellipse cx="103.001" cy="70.843" fill="#F9FAFF" rx="9.866" ry="14.04" transform="rotate(9.29696 103.001 70.8432)"/><path stroke="#F15608" stroke-width=".758" d="M127.136 72.3915C126.521 76.1498 124.896 79.361 122.784 81.5177C120.672 83.6754 118.101 84.7546 115.568 84.3399C113.034 83.9251 110.942 82.0826 109.628 79.364C108.314 76.6466 107.798 73.0848 108.413 69.3264C109.028 65.5681 110.653 62.3569 112.765 60.2002C114.877 58.0425 117.448 56.9633 119.981 57.3781C122.515 57.7928 124.607 59.6353 125.921 62.3539C127.235 65.0713 127.751 68.6332 127.136 72.3915Z"/><ellipse cx="120.051" cy="70.859" fill="#FD6B22" rx="9.866" ry="14.04" transform="rotate(9.29696 120.051 70.859)"/></g><ellipse cx="9.858" cy="14.028" fill="#fff" rx="9.858" ry="14.028" transform="matrix(-0.986649 0.167846 0.167846 0.986649 17.3808 56.8812)"/><mask id="mask9_2153_132" style="mask-type:luminance" width="21" height="29" x="0" y="58" maskUnits="userSpaceOnUse"><ellipse cx="9.858" cy="14.028" fill="#fff" rx="9.858" ry="14.028" transform="matrix(-0.986649 0.167846 0.167846 0.986649 17.3808 56.8812)"/></mask><g mask="url(#mask9_2153_132)"><ellipse cx="9.858" cy="14.028" fill="#F9FAFF" rx="9.858" ry="14.028" transform="matrix(-0.986649 0.167846 0.167846 0.986649 17.3808 56.8812)"/><path stroke="#F15608" stroke-width=".758" d="M-14.1158 74.0756C-13.4771 77.8301 -11.8316 81.0311 -9.70677 83.1745C-7.58093 85.319 -5.00374 86.3821 -2.47288 85.9516C0.0579794 85.521 2.13866 83.6655 3.43582 80.9388C4.7324 78.2132 5.22684 74.6482 4.58815 70.8938C3.94946 67.1394 2.30399 63.9383 0.179112 61.7949C-1.94672 59.6504 -4.52391 58.5873 -7.05477 59.0179C-9.58563 59.4484 -11.6663 61.3039 -12.9635 64.0307C-14.2601 66.7562 -14.7545 70.3212 -14.1158 74.0756Z"/><ellipse cx="9.858" cy="14.028" fill="#FD6B22" rx="9.858" ry="14.028" transform="matrix(-0.986649 0.167846 0.167846 0.986649 0.331114 57.0034)"/></g><ellipse cx="56.843" cy="67.342" fill="#F9FAFF" rx="49.329" ry="41.725" transform="rotate(-4.04481 56.8428 67.3416)"/><ellipse cx="56.843" cy="67.342" fill="#F9FAFF" rx="49.329" ry="41.725" transform="rotate(-4.04481 56.8428 67.3416)"/><mask id="mask10_2153_132" style="mask-type:luminance" width="100" height="85" x="7" y="25" maskUnits="userSpaceOnUse"><ellipse cx="56.843" cy="67.342" fill="#fff" rx="49.329" ry="41.725" transform="rotate(-4.04481 56.8428 67.3416)"/></mask><g mask="url(#mask10_2153_132)"><path fill="#20B9FC" d="M58.963 97.6988C56.6983 97.6988 54.8624 95.8628 54.8624 93.5981C54.8624 91.3334 56.6983 95.8762 58.963 95.8762C61.2278 95.8762 63.0637 91.3334 63.0637 93.5981C63.0637 95.8628 61.2278 97.6988 58.963 97.6988Z"/><ellipse cx="64.03" cy="112.328" fill="#1B1F31" opacity=".1" rx="21.249" ry="7.589"/><path fill="#20B9FC" d="M114.934 52.3741V101.703C75.3225 82.2826 51.4855 80.7918 4.89224 101.703V52.3741C47.6106 24.3835 71.7182 25.8939 114.934 52.3741Z"/><mask id="mask11_2153_132" style="mask-type:luminance" width="111" height="71" x="4" y="31" maskUnits="userSpaceOnUse"><path fill="#fff" d="M114.934 52.3741V101.703C75.3225 82.2826 51.4855 80.7918 4.89224 101.703V52.3741C47.6106 24.3835 71.7182 25.8939 114.934 52.3741Z"/></mask><g mask="url(#mask11_2153_132)"><path fill="#20B9FC" d="M114.934 52.3741V101.703C75.3225 82.2826 51.4855 80.7918 4.89224 101.703V52.3741C47.6106 24.3835 71.7182 25.8939 114.934 52.3741Z"/><path fill="#17ACEE" d="M114.877 2.2263V51.5553C75.2654 32.1349 51.4283 30.6441 4.83507 51.5553V2.2263C47.5534 -25.7643 71.661 -24.2538 114.877 2.2263Z"/></g></g><path stroke="#F9FAFF" stroke-width=".758" d="M49.9904 62.9988C49.9904 67.761 48.8147 72.054 46.9338 75.144C45.0488 78.2407 42.4961 80.0742 39.7451 80.0742C36.9942 80.0742 34.4415 78.2407 32.5565 75.144C30.6756 72.054 29.4999 67.761 29.4999 62.9988C29.4999 58.2367 30.6756 53.9437 32.5565 50.8537C34.4415 47.7569 36.9942 45.9234 39.7451 45.9234C42.4961 45.9234 45.0488 47.7569 46.9338 50.8537C48.8147 53.9437 49.9904 58.2367 49.9904 62.9988Z"/><path stroke="#F9FAFF" stroke-width=".758" d="M87.3263 62.9988C87.3263 67.761 86.1506 72.054 84.2697 75.144C82.3848 78.2407 79.8321 80.0742 77.0811 80.0742C74.3301 80.0742 71.7774 78.2407 69.8924 75.144C68.0115 72.054 66.8358 67.761 66.8358 62.9988C66.8358 58.2367 68.0115 53.9437 69.8924 50.8537C71.7774 47.7569 74.3301 45.9234 77.0811 45.9234C79.8321 45.9234 82.3848 47.7569 84.2697 50.8537C86.1506 53.9437 87.3263 58.2367 87.3263 62.9988Z"/><ellipse cx="39.745" cy="62.999" fill="#F9FAFF" rx="9.107" ry="15.937"/><ellipse cx="77.081" cy="62.999" fill="#F9FAFF" rx="9.107" ry="15.937"/><ellipse cx="39.82" cy="63.377" fill="#20B9FC" rx="7.21" ry="12.522"/><ellipse cx="77.006" cy="63.377" fill="#20B9FC" rx="7.21" ry="12.522"/></svg>