<svg xmlns="http://www.w3.org/2000/svg" width="133" height="115" fill="none" viewBox="0 0 133 115"><ellipse cx="128.973" cy="5.698" fill="#1B1F31" rx="3.646" ry="3.927" transform="rotate(91.417 128.973 5.69769)"/><mask id="mask0_2153_225" style="mask-type:luminance" width="8" height="8" x="125" y="2" maskUnits="userSpaceOnUse"><ellipse cx="128.973" cy="5.698" fill="#fff" rx="3.646" ry="3.927" transform="rotate(91.417 128.973 5.69769)"/></mask><g mask="url(#mask0_2153_225)"><ellipse cx="128.973" cy="5.698" fill="#FD6B22" rx="3.646" ry="3.927" transform="rotate(91.417 128.973 5.69769)"/><ellipse cx="125.149" cy="5.49" fill="#F15608" rx="3.646" ry="3.927" transform="rotate(91.417 125.149 5.48981)"/></g><ellipse cx="120.881" cy="5.486" fill="#fff" rx="5.438" ry="5.857" transform="rotate(70.8388 120.881 5.48606)"/><mask id="mask1_2153_225" style="mask-type:luminance" width="12" height="11" x="115" y="0" maskUnits="userSpaceOnUse"><ellipse cx="120.881" cy="5.486" fill="#fff" rx="5.438" ry="5.857" transform="rotate(70.8388 120.881 5.48606)"/></mask><g mask="url(#mask1_2153_225)"><ellipse cx="120.881" cy="5.486" fill="#F9FAFF" rx="5.438" ry="5.857" transform="rotate(70.8388 120.881 5.48606)"/><ellipse cx="112.823" cy="7.08" fill="#E9E9EB" rx="5.438" ry="5.857" transform="rotate(70.8388 112.823 7.07957)"/></g><ellipse cx="109.078" cy="8.063" fill="#1B1F31" rx="7.309" ry="7.872" transform="rotate(48.3573 109.078 8.06262)"/><mask id="mask2_2153_225" style="mask-type:luminance" width="16" height="16" x="101" y="0" maskUnits="userSpaceOnUse"><ellipse cx="109.078" cy="8.063" fill="#fff" rx="7.309" ry="7.872" transform="rotate(48.3573 109.078 8.06262)"/></mask><g mask="url(#mask2_2153_225)"><ellipse cx="109.078" cy="8.063" fill="#FD6B22" rx="7.309" ry="7.872" transform="rotate(48.3573 109.078 8.06262)"/><ellipse cx="102.798" cy="12.954" fill="#F15608" rx="7.309" ry="7.872" transform="rotate(48.3573 102.798 12.9537)"/></g><ellipse cx="99.412" cy="19.783" fill="#fff" rx="10.9" ry="11.74" transform="rotate(27.8261 99.4121 19.7834)"/><mask id="mask3_2153_225" style="mask-type:luminance" width="23" height="24" x="88" y="8" maskUnits="userSpaceOnUse"><ellipse cx="99.412" cy="19.783" fill="#fff" rx="10.9" ry="11.74" transform="rotate(27.8261 99.4121 19.7834)"/></mask><g mask="url(#mask3_2153_225)"><ellipse cx="99.412" cy="19.783" fill="#F9FAFF" rx="10.9" ry="11.74" transform="rotate(27.8261 99.4121 19.7834)"/><ellipse cx="93.342" cy="28.673" fill="#E9E9EB" rx="10.9" ry="9.919" transform="rotate(27.8261 93.3418 28.6734)"/></g><ellipse cx="4.353" cy="6.859" fill="#1B1F31" rx="3.646" ry="3.927" transform="rotate(88.583 4.35251 6.85945)"/><mask id="mask4_2153_225" style="mask-type:luminance" width="9" height="8" x="0" y="3" maskUnits="userSpaceOnUse"><ellipse cx="4.353" cy="6.859" fill="#fff" rx="3.646" ry="3.927" transform="rotate(88.583 4.35251 6.85945)"/></mask><g mask="url(#mask4_2153_225)"><ellipse cx="4.353" cy="6.859" fill="#FD6B22" rx="3.646" ry="3.927" transform="rotate(88.583 4.35251 6.85945)"/><ellipse cx="8.177" cy="6.651" fill="#F15608" rx="3.646" ry="3.927" transform="rotate(88.583 8.17684 6.65144)"/></g><ellipse cx="5.438" cy="5.857" fill="#fff" rx="5.438" ry="5.857" transform="matrix(-0.328227 0.944597 0.944597 0.328227 8.69688 -0.411254)"/><mask id="mask5_2153_225" style="mask-type:luminance" width="13" height="12" x="6" y="1" maskUnits="userSpaceOnUse"><ellipse cx="5.438" cy="5.857" fill="#fff" rx="5.438" ry="5.857" transform="matrix(-0.328227 0.944597 0.944597 0.328227 8.69688 -0.411254)"/></mask><g mask="url(#mask5_2153_225)"><ellipse cx="5.438" cy="5.857" fill="#F9FAFF" rx="5.438" ry="5.857" transform="matrix(-0.328227 0.944597 0.944597 0.328227 8.69688 -0.411254)"/><ellipse cx="5.438" cy="5.857" fill="#E9E9EB" rx="5.438" ry="5.857" transform="matrix(-0.328227 0.944597 0.944597 0.328227 16.7552 1.18225)"/></g><ellipse cx="7.309" cy="7.872" fill="#1B1F31" rx="7.309" ry="7.872" transform="matrix(-0.664482 0.747302 0.747302 0.664482 23.2211 -1.46814)"/><mask id="mask6_2153_225" style="mask-type:luminance" width="16" height="16" x="16" y="1" maskUnits="userSpaceOnUse"><ellipse cx="7.309" cy="7.872" fill="#fff" rx="7.309" ry="7.872" transform="matrix(-0.664482 0.747302 0.747302 0.664482 23.2211 -1.46814)"/></mask><g mask="url(#mask6_2153_225)"><ellipse cx="7.309" cy="7.872" fill="#FD6B22" rx="7.309" ry="7.872" transform="matrix(-0.664482 0.747302 0.747302 0.664482 23.2211 -1.46814)"/><ellipse cx="7.309" cy="7.872" fill="#F15608" rx="7.309" ry="7.872" transform="matrix(-0.664482 0.747302 0.747302 0.664482 29.5018 3.42297)"/></g><ellipse cx="10.9" cy="11.74" fill="#fff" rx="10.9" ry="11.74" transform="matrix(-0.884367 0.466788 0.466788 0.884367 38.0732 5.4746)"/><mask id="mask7_2153_225" style="mask-type:luminance" width="24" height="24" x="22" y="9" maskUnits="userSpaceOnUse"><ellipse cx="10.9" cy="11.74" fill="#fff" rx="10.9" ry="11.74" transform="matrix(-0.884367 0.466788 0.466788 0.884367 38.0732 5.4746)"/></mask><g mask="url(#mask7_2153_225)"><ellipse cx="10.9" cy="11.74" fill="#F9FAFF" rx="10.9" ry="11.74" transform="matrix(-0.884367 0.466788 0.466788 0.884367 38.0732 5.4746)"/><ellipse cx="10.9" cy="9.919" fill="#E9E9EB" rx="10.9" ry="9.919" transform="matrix(-0.884367 0.466788 0.466788 0.884367 44.9935 15.9749)"/></g><ellipse cx="119.55" cy="70.585" fill="#fff" rx="11.451" ry="16.296" transform="rotate(9.29696 119.55 70.5853)"/><mask id="mask8_2153_225" style="mask-type:luminance" width="25" height="33" x="107" y="54" maskUnits="userSpaceOnUse"><ellipse cx="119.55" cy="70.585" fill="#fff" rx="11.451" ry="16.296" transform="rotate(9.29696 119.55 70.5853)"/></mask><g mask="url(#mask8_2153_225)"><ellipse cx="119.55" cy="70.585" fill="#F9FAFF" rx="11.451" ry="16.296" transform="rotate(9.29696 119.55 70.5853)"/><path stroke="#F15608" stroke-width=".881" d="M147.563 72.3823C146.849 76.7445 144.962 80.4716 142.512 82.9748C140.06 85.4791 137.076 86.7317 134.136 86.2504C131.195 85.769 128.767 83.6305 127.242 80.4751C125.717 77.3211 125.117 73.1869 125.831 68.8248C126.546 64.4626 128.432 60.7354 130.883 58.2322C133.335 55.7279 136.318 54.4753 139.259 54.9567C142.199 55.438 144.628 57.5766 146.153 60.732C147.678 63.8859 148.277 68.0201 147.563 72.3823Z"/><ellipse cx="139.34" cy="70.603" fill="#FD6B22" rx="11.451" ry="16.296" transform="rotate(9.29696 139.34 70.6035)"/></g><ellipse cx="11.451" cy="16.296" fill="#fff" rx="11.451" ry="16.296" transform="matrix(-0.985835 0.167708 0.167708 0.985835 20.1734 54.3801)"/><mask id="mask9_2153_225" style="mask-type:luminance" width="24" height="33" x="0" y="56" maskUnits="userSpaceOnUse"><ellipse cx="11.451" cy="16.296" fill="#fff" rx="11.451" ry="16.296" transform="matrix(-0.985835 0.167708 0.167708 0.985835 20.1734 54.3801)"/></mask><g mask="url(#mask9_2153_225)"><ellipse cx="11.451" cy="16.296" fill="#F9FAFF" rx="11.451" ry="16.296" transform="matrix(-0.985835 0.167708 0.167708 0.985835 20.1734 54.3801)"/><path stroke="#F15608" stroke-width=".881" d="M-16.3837 74.3371C-15.6424 78.6947 -13.7326 82.41 -11.2663 84.8979C-8.7989 87.3868 -5.80763 88.6208 -2.87014 88.1211C0.0673462 87.6214 2.48233 85.4677 3.9879 82.3029C5.4928 79.1394 6.06669 75.0016 5.32538 70.644C4.58407 66.2863 2.67422 62.571 0.207941 60.0832C-2.25944 57.5942 -5.25071 56.3603 -8.1882 56.86C-11.1257 57.3597 -13.5407 59.5133 -15.0462 62.6782C-16.5511 65.8416 -17.125 69.9794 -16.3837 74.3371Z"/><ellipse cx="11.451" cy="16.296" fill="#FD6B22" rx="11.451" ry="16.296" transform="matrix(-0.985835 0.167708 0.167708 0.985835 0.384215 54.522)"/></g><ellipse cx="65.976" cy="66.521" fill="#F9FAFF" rx="57.255" ry="48.428" transform="rotate(-4.04481 65.9759 66.521)"/><ellipse cx="65.976" cy="66.521" fill="#F9FAFF" rx="57.255" ry="48.428" transform="rotate(-4.04481 65.9758 66.521)"/><mask id="mask10_2153_225" style="mask-type:luminance" width="116" height="97" x="8" y="18" maskUnits="userSpaceOnUse"><ellipse cx="65.976" cy="66.521" fill="#fff" rx="57.255" ry="48.428" transform="rotate(-4.04481 65.9758 66.521)"/></mask><g mask="url(#mask10_2153_225)"><path fill="#20B9FC" d="M68.4369 96.2617C71.0655 96.2617 73.1964 98.3926 73.1964 101.021C73.1964 103.65 71.0655 98.3771 68.4369 98.3771C65.8083 98.3771 63.6774 103.65 63.6774 101.021C63.6774 98.3926 65.8083 96.2617 68.4369 96.2617Z"/><ellipse cx="74.318" cy="118.735" fill="#1B1F31" opacity=".1" rx="24.663" ry="8.808"/><path fill="#20B9FC" d="M133.4 49.1487V106.403C87.4246 83.8626 59.7577 82.1323 5.67839 106.403V49.1487C55.2603 16.6609 83.2412 18.414 133.4 49.1487Z"/><mask id="mask11_2153_225" style="mask-type:luminance" width="129" height="82" x="5" y="25" maskUnits="userSpaceOnUse"><path fill="#fff" d="M133.4 49.1487V106.403C87.4246 83.8626 59.7577 82.1323 5.67839 106.403V49.1487C55.2603 16.6609 83.2412 18.414 133.4 49.1487Z"/></mask><g mask="url(#mask11_2153_225)"><path fill="#20B9FC" d="M133.4 49.1487V106.403C87.4246 83.8626 59.7577 82.1323 5.67839 106.403V49.1487C55.2603 16.6609 83.2412 18.414 133.4 49.1487Z"/><path fill="#17ACEE" d="M133.334 -9.05617V48.1984C87.3584 25.6578 59.6914 23.9274 5.61211 48.1984V-9.05617C55.194 -41.544 83.1749 -39.7908 133.334 -9.05617Z"/></g></g><path stroke="#F9FAFF" stroke-width=".881" d="M58.0223 61.4805C58.0223 67.0078 56.6577 71.9905 54.4746 75.577C52.2868 79.1713 49.3239 81.2994 46.1309 81.2994C42.938 81.2994 39.9751 79.1713 37.7873 75.577C35.6042 71.9905 34.2396 67.0078 34.2396 61.4805C34.2396 55.9533 35.6042 50.9705 37.7873 47.384C39.9751 43.7897 42.938 41.6616 46.1309 41.6616C49.3239 41.6616 52.2868 43.7897 54.4746 47.384C56.6577 50.9705 58.0223 55.9533 58.0223 61.4805Z"/><path stroke="#F9FAFF" stroke-width=".881" d="M101.357 61.4805C101.357 67.0078 99.9924 71.9905 97.8093 75.577C95.6214 79.1713 92.6586 81.2994 89.4656 81.2994C86.2726 81.2994 83.3098 79.1713 81.122 75.577C78.9389 71.9905 77.5743 67.0078 77.5743 61.4805C77.5743 55.9533 78.9389 50.9705 81.122 47.384C83.3098 43.7897 86.2726 41.6616 89.4656 41.6616C92.6586 41.6616 95.6214 43.7897 97.8093 47.384C99.9924 50.9705 101.357 55.9533 101.357 61.4805Z"/><ellipse cx="46.131" cy="61.481" fill="#F9FAFF" rx="10.57" ry="18.498"/><ellipse cx="89.466" cy="61.481" fill="#F9FAFF" rx="10.57" ry="18.498"/><ellipse cx="46.218" cy="61.919" fill="#20B9FC" rx="8.368" ry="14.534"/><ellipse cx="89.379" cy="61.919" fill="#20B9FC" rx="8.368" ry="14.534"/><ellipse cx="89.341" cy="50.486" fill="#F9FAFF" rx="4.646" ry="5.227"/><ellipse cx="46.361" cy="50.486" fill="#F9FAFF" rx="4.646" ry="5.227"/></svg>